<svg width="44" height="23" viewBox="0 0 44 23" fill="none" xmlns="http://www.w3.org/2000/svg">
<path d="M1.64353 13.5538C-0.547837 13.0495 -0.547844 9.91599 1.64352 9.41168L10.9749 7.40955C13.2803 6.87898 15.0777 2.54955 16.4133 0.820718C17.7942 -0.966836 20.9892 0.404142 20.6866 2.64583C20.2929 5.56304 19.9809 8.73971 19.9809 11.4828C19.9809 14.2258 20.2929 17.4025 20.6866 20.3197C20.9892 22.5614 17.7942 23.9324 16.4133 22.1448C15.0777 20.416 13.2803 16.0865 10.9749 15.556L1.64353 13.5538Z" fill="black"/>
<path d="M29.1065 3.34311C29.1065 4.54724 28.134 5.52338 26.9343 5.52338C25.7347 5.52338 24.7622 4.54724 24.7622 3.34311C24.7622 2.13898 25.7347 1.16284 26.9343 1.16284C28.134 1.16284 29.1065 2.13898 29.1065 3.34311Z" fill="black"/>
<path d="M36.0573 3.34311C36.0573 3.98531 35.5386 4.50592 34.8988 4.50592C34.259 4.50592 33.7403 3.98531 33.7403 3.34311C33.7403 2.70091 34.259 2.1803 34.8988 2.1803C35.5386 2.1803 36.0573 2.70091 36.0573 3.34311Z" fill="black"/>
<path d="M36.0573 19.4771C36.0573 20.1193 35.5386 20.6399 34.8988 20.6399C34.259 20.6399 33.7403 20.1193 33.7403 19.4771C33.7403 18.8349 34.259 18.3143 34.8988 18.3143C35.5386 18.3143 36.0573 18.8349 36.0573 19.4771Z" fill="black"/>
<path d="M43.8769 11.3374C43.8769 11.9796 43.3582 12.5002 42.7184 12.5002C42.0786 12.5002 41.56 11.9796 41.56 11.3374C41.56 10.6952 42.0786 10.1746 42.7184 10.1746C43.3582 10.1746 43.8769 10.6952 43.8769 11.3374Z" fill="black"/>
<path d="M30.2649 11.4101C30.2649 13.2966 28.7414 14.8259 26.8619 14.8259C24.9825 14.8259 23.4589 13.2966 23.4589 11.4101C23.4589 9.52363 24.9825 7.99434 26.8619 7.99434C28.7414 7.99434 30.2649 9.52363 30.2649 11.4101Z" fill="black"/>
<path d="M29.1065 19.4771C29.1065 20.6812 28.134 21.6574 26.9343 21.6574C25.7347 21.6574 24.7622 20.6812 24.7622 19.4771C24.7622 18.273 25.7347 17.2968 26.9343 17.2968C28.134 17.2968 29.1065 18.273 29.1065 19.4771Z" fill="black"/>
<path d="M37.0709 11.3374C37.0709 12.5416 36.0984 13.5177 34.8988 13.5177C33.6992 13.5177 32.7267 12.5416 32.7267 11.3374C32.7267 10.1333 33.6992 9.15715 34.8988 9.15715C36.0984 9.15715 37.0709 10.1333 37.0709 11.3374Z" fill="black"/>
</svg>
