<svg width="16" height="18" viewBox="0 0 16 18" fill="none" xmlns="http://www.w3.org/2000/svg">
<path fill-rule="evenodd" clip-rule="evenodd" d="M2.71895 0.795898C1.21732 0.795898 0 2.01521 0 3.5193V14.4129C0 15.917 1.21732 17.1363 2.71895 17.1363H13.281C14.7827 17.1363 16 15.917 16 14.4129V3.5193C16 2.01521 14.7827 0.795898 13.281 0.795898H2.71895ZM2.19589 4.45125C2.19589 5.27284 2.81778 5.87324 3.5849 5.87324C4.35213 5.87324 4.97402 5.27284 4.97402 4.45125C4.97402 3.62978 4.35213 3.02869 3.5849 3.02869C2.81778 3.02869 2.19589 3.62978 2.19589 4.45125ZM11.2626 14.8393H13.6719V9.97214C13.6719 7.56837 12.2191 6.74849 10.8747 6.74849C9.63161 6.74849 8.78714 7.57558 8.55399 8.06006V6.96968H6.23694V14.8393H8.64625V10.5727C8.64625 9.43502 9.34704 8.88176 10.062 8.88176C10.7382 8.88176 11.2626 9.27288 11.2626 10.5411V14.8393ZM4.7895 6.96362V14.8332H2.3803V6.96362H4.7895Z" fill="black"/>
</svg>
