<svg width="16" height="17" viewBox="0 0 16 17" fill="none" xmlns="http://www.w3.org/2000/svg">
<g clip-path="url(#clip0_864_46737)">
<path fill-rule="evenodd" clip-rule="evenodd" d="M0 8.96582C0 12.9258 2.88 16.2058 6.68 16.8858L6.72726 16.8472C6.72442 16.8466 6.72159 16.8461 6.71875 16.8456V11.2056H4.71875V8.96561H6.71875V7.20561C6.71875 5.20561 7.99875 4.08561 9.83875 4.08561C10.3987 4.08561 11.0387 4.16561 11.5988 4.24561V6.28561H10.5587C9.59875 6.28561 9.35875 6.76561 9.35875 7.40561V8.96561H11.4788L11.1187 11.2056H9.35875V16.8456C9.33466 16.85 9.31057 16.8543 9.28648 16.8584L9.32 16.8858C13.12 16.2058 16 12.9258 16 8.96582C16 4.56582 12.4 0.96582 8 0.96582C3.6 0.96582 0 4.56582 0 8.96582Z" fill="black"/>
</g>
<defs>
<clipPath id="clip0_864_46737">
<rect width="16" height="16" fill="white" transform="translate(0 0.96582)"/>
</clipPath>
</defs>
</svg>
